<svg xmlns="http://www.w3.org/2000/svg" viewBox="0 0 337 475"><defs><style>.\37 4c1c713-ff05-486e-aeec-a1b82b965c41{fill:#00012a;}.\33 31376c1-3658-4ae0-9935-a563833c5439,.f707ec63-9de3-4e66-92ff-d75f049d8222{fill:#e1e5eb;}.\30 fe450b6-fca2-4603-9382-9936921a7e1c{fill:#bcc1c6;}.\34 0b572e9-82d7-4714-b437-7f821ffe4e0a{fill:#752475;}.\31 1da92c9-f720-45a8-9d1c-1c3dfd56bcba{fill:#b32582;}.e852bac6-ed05-4775-ae13-d0809d286e35{fill:#bf2480;}.be4df958-9ad6-4f1e-90ab-60f8b5c907ce{fill:#de1f78;}.\38 8644568-dde9-43ed-923a-db92dadebfd2{fill:#8e2988;}.\31 de36fef-969c-4d98-9b6d-250a5a7c7f62{fill:#fbfbfb;}.d339c05f-69f3-4677-98ac-5bbfcca2d172{fill:#962888;}.\32 bed6256-c0b7-4bb7-ae18-2cc649fb864b{fill:#cb227f;}.f4b041b2-ec5f-4579-bee9-cc3b08b87ee2{fill:#9f2786;}.\30 db5ce95-0a47-4432-8e8d-53d6869fafa2{fill:#a92685;}.\31 7bf3967-3a86-4b27-b6f2-3da06fc7d176{fill:#e04795;}.\32 f7f282c-d959-4b2a-9280-afcbf2b6513a{fill:#e6e7ef;}.\37 ddd01e2-e144-4d0e-92ec-d1bbbb536a32{fill:#b94a9b;}.\33 31376c1-3658-4ae0-9935-a563833c5439{font-size:46px;font-family:FranklinGothic-Heavy, Franklin Gothic Heavy;}.\34 f02dfc7-eac2-4533-8792-e22076c5cc6a{letter-spacing:0.01em;}.\35 cb85342-7280-4d84-a4a3-5d2e41b4edca{fill:#fff;}</style></defs><title>design-2</title><g id="300fbed0-481e-470a-9838-184258a31325" data-name="Layer 3"><rect class="74c1c713-ff05-486e-aeec-a1b82b965c41" x="51" y="50" width="240" height="268"/><path class="f707ec63-9de3-4e66-92ff-d75f049d8222" d="M159.85,110.66c7.26-7.32,14.17-15,21.85-21.89a32.15,32.15,0,0,1,44.21,1.45c.42,1.6.72,3.24,1.27,4.79,4.52,12.49,2.55,24.11-6,34a212.88,212.88,0,0,1-22.32,22.12L193,146a18.73,18.73,0,0,0-5-5,18.73,18.73,0,0,0-5-5,12.23,12.23,0,0,0-4-4,26.53,26.53,0,0,0-6-6,12.33,12.33,0,0,0-4-4l-1.92-2-1.27-1.88c1.88,0,3-1.33,4.12-2.5,5.5-5.5,11-11,16.51-16.5,2-2,4-4.16,1.62-6.74s-4.79.19-6.28,1.63C175,100.5,168,106.84,162,114.09c-.31-.06-.61-.12-.92-.16Z"/><path class="0fe450b6-fca2-4603-9382-9936921a7e1c" d="M198.85,151.09A212.88,212.88,0,0,0,221.17,129c8.56-9.85,10.53-21.47,6-34-.55-1.55-.85-3.19-1.27-4.79,11.83,10.73,13.62,30.12,3.21,42.9a196.85,196.85,0,0,1-23.93,23.95L199,152C199,151.68,198.91,151.39,198.85,151.09Z"/><path class="40b572e9-82d7-4714-b437-7f821ffe4e0a" d="M199,152l6.18,5.09-7.28,8a10.61,10.61,0,0,0-3.88,4,49.91,49.91,0,0,0-9.05,9l-9,5-12.42,2.09c-9.34-1.13-17.94-3.76-23.83-11.85l2.25-.12a17.93,17.93,0,0,0,11,4c2.84,1.91,6,.55,9,.93,9.94-1.51,17.82-6.52,24.51-13.9C190.39,159.79,194.82,156,199,152Z"/><path class="11da92c9-f720-45a8-9d1c-1c3dfd56bcba" d="M142,173.09l-2.25.12a15.6,15.6,0,0,1-4.88-7.93l36.28-35.92c1-1,1.88-1.89,1.86-3.36a26.53,26.53,0,0,1,6,6,159.42,159.42,0,0,0-29,29.06c-5.32.34-5.65.92-3.95,6.87Z"/><path class="e852bac6-ed05-4775-ae13-d0809d286e35" d="M173,126c0,1.47-.9,2.41-1.86,3.36l-36.28,35.92c-2.09-2.38-2.15-5.38-2.55-8.28,3.3.42,4.29-3,6.74-4,4.16.09,5.09-2.5,4.95-6,1.49,0,2.43-.91,3.38-1.86q9.87-9.88,19.75-19.76c1-1,1.89-1.89,1.88-3.38A12.33,12.33,0,0,1,173,126Z"/><path class="be4df958-9ad6-4f1e-90ab-60f8b5c907ce" d="M159.85,110.66c.4,1.09.8,2.18,1.19,3.27-.06,2.08-1.68,3.15-2.94,4.42-4.55,4.59-9,9.33-13.74,13.66-4.52,4.1-6.24,9.15-6.49,15l-5.82,1q.49-3.48,1-7c4.34-8.79,10.79-15.89,17.88-22.49C154.53,116.6,156.49,112.84,159.85,110.66Z"/><path class="e852bac6-ed05-4775-ae13-d0809d286e35" d="M150.94,118.52c-7.09,6.6-13.54,13.7-17.88,22.49-4.22,1.38-6.49,4.94-9.1,8.12a15,15,0,0,1-6.13-3c9.29-8,17.49-17.16,26.2-25.76.62-.62.68-1.8,1-2.71Z"/><path class="88644568-dde9-43ed-923a-db92dadebfd2" d="M199.06,173c1.77,3.12,0,5.54-1.91,7.54-6.51,6.66-13.14,13.19-19.82,19.67-2.5,2.43-5,2.63-6.71-1,2.88-1.48,4.66-4.19,7-6.29C184.84,186.34,190.69,178.3,199.06,173Z"/><path class="1de36fef-969c-4d98-9b6d-250a5a7c7f62" d="M106.92,213c-2.88-.08-4.29-3.12-2.32-5.19,6.54-6.84,13.35-13.42,20.11-20a2.45,2.45,0,0,1,3.59.11,2.71,2.71,0,0,1,.48,4c-6.71,6.9-13.57,13.67-20.42,20.44A3.84,3.84,0,0,1,106.92,213Z"/><path class="d339c05f-69f3-4677-98ac-5bbfcca2d172" d="M199.06,173c-8.37,5.33-14.22,13.37-21.46,19.92-2.32,2.1-4.1,4.81-7,6.29-.69-1.34-1.37-2.69-2.05-4,6.32-3.18,10.6-8.73,15.52-13.52.79-.76,2.83-1.92.89-3.65a49.91,49.91,0,0,1,9.05-9c1.57,1.16,3,.53,4.51-.22C198.72,170.19,198.89,171.58,199.06,173Z"/><path class="1de36fef-969c-4d98-9b6d-250a5a7c7f62" d="M105.18,198.05c-2.7-.75-3.69-2.85-2-4.8,4.18-4.73,8.81-9.06,13.32-13.49a2.57,2.57,0,0,1,3.63,0c1.23.95,1.71,2.47.87,3.53a119.67,119.67,0,0,1-14.34,14.49C106.39,198,105.76,198,105.18,198.05Z"/><path class="1de36fef-969c-4d98-9b6d-250a5a7c7f62" d="M137.47,198.44a10.16,10.16,0,0,1-1.37,2.27c-3.94,4-7.95,8-11.95,12-1.48,1.48-3.15,2-4.75.39-1.39-1.43-1.06-3,.3-4.4q6.14-6.18,12.32-12.33a3.11,3.11,0,0,1,3.59-1C136.83,195.89,137.31,196.9,137.47,198.44Z"/><path class="be4df958-9ad6-4f1e-90ab-60f8b5c907ce" d="M115.25,144c-1-2.41.13-4.06,1.79-5.69,6.16-6.07,12.32-12.13,18.32-18.36,2.61-2.7,5.43-3.61,9-2.51-2,.57-3.33,2.09-4.73,3.49-6.67,6.67-13.32,13.35-20,20C118.31,142.16,117.32,143.86,115.25,144Z"/><path class="2bed6256-c0b7-4bb7-ae18-2cc649fb864b" d="M115.25,144c2.07-.13,3.06-1.83,4.32-3.08,6.7-6.64,13.35-13.32,20-20,1.4-1.4,2.71-2.92,4.73-3.49a.6.6,0,0,1,.71.2c-.32.91-.38,2.09-1,2.71-8.71,8.6-16.91,17.73-26.2,25.76A2.62,2.62,0,0,1,115.25,144Z"/><path class="f4b041b2-ec5f-4579-bee9-cc3b08b87ee2" d="M185,178c1.94,1.73-.1,2.89-.89,3.65-4.92,4.79-9.2,10.34-15.52,13.52l-1.71-3.1A16.24,16.24,0,0,0,176,183Z"/><path class="0db5ce95-0a47-4432-8e8d-53d6869fafa2" d="M176,183a16.24,16.24,0,0,1-9.13,9.08l-3.29-7Z"/><path class="0db5ce95-0a47-4432-8e8d-53d6869fafa2" d="M124,149.13c2.61-3.18,4.88-6.74,9.1-8.12q-.51,3.48-1,7l-.21,5.3Z"/><path class="2bed6256-c0b7-4bb7-ae18-2cc649fb864b" d="M131.84,153.27l.21-5.3,5.82-1c.17,2-.15,4.18,1.18,6-2.45,1-3.44,4.45-6.74,4C132.15,155.75,132,154.51,131.84,153.27Z"/><path class="f4b041b2-ec5f-4579-bee9-cc3b08b87ee2" d="M198.54,168.79c-1.47.75-2.94,1.38-4.51.22a10.61,10.61,0,0,1,3.88-4Z"/><path class="f4b041b2-ec5f-4579-bee9-cc3b08b87ee2" d="M142,173.09l4-5.16c5.18,2.69,5.95,2.36,7-2.93,2.18-2,4.41-4,6.54-6.06Q171.3,147.5,183,136a18.73,18.73,0,0,1,5,5c-11.89,10.76-22.81,22.5-34.17,33.8-.51.51-.57,1.49-.85,2.25A17.93,17.93,0,0,1,142,173.09Z"/><path class="d339c05f-69f3-4677-98ac-5bbfcca2d172" d="M153,177.05c.28-.76.34-1.74.85-2.25,11.36-11.3,22.28-23,34.17-33.8a18.73,18.73,0,0,1,5,5c-10.54,9.41-20.1,19.81-30.12,29.74-.52.52-.6,1.49-.89,2.24C159,177.6,155.83,179,153,177.05Z"/><path class="88644568-dde9-43ed-923a-db92dadebfd2" d="M162,178c.29-.75.37-1.72.89-2.24,10-9.93,19.58-20.33,30.12-29.74l5.84,5.09c.06.3.11.59.16.89-4.19,4-8.62,7.81-12.5,12.1C179.82,171.46,171.94,176.47,162,178Z"/><path class="17bf3967-3a86-4b27-b6f2-3da06fc7d176" d="M139.05,153c-1.33-1.81-1-3.95-1.18-6,.25-5.82,2-10.87,6.49-15,4.78-4.33,9.19-9.07,13.74-13.66,1.26-1.27,2.88-2.34,2.94-4.42.31,0,.61.1.92.16a11.82,11.82,0,0,0,3.86,4l1.27,1.88c-.77.28-1.74.34-2.27.86-6,5.93-12.11,11.82-17.91,18A10.27,10.27,0,0,0,144,147C144.14,150.47,143.21,153.06,139.05,153Z"/><path class="0db5ce95-0a47-4432-8e8d-53d6869fafa2" d="M183,136q-11.73,11.48-23.47,22.94C157.41,161,155.18,163,153,165c-1.75-.74-2.17-2.5-3-3.94A159.42,159.42,0,0,1,179,132,12.23,12.23,0,0,1,183,136Z"/><path class="2f7f282c-d959-4b2a-9280-afcbf2b6513a" d="M165.82,118.06a11.82,11.82,0,0,1-3.86-4C168,106.84,175,100.5,181.79,94c1.49-1.44,3.75-4.34,6.28-1.63s.35,4.79-1.62,6.74c-5.52,5.48-11,11-16.51,16.5C168.77,116.73,167.7,118.06,165.82,118.06Z"/><path class="2bed6256-c0b7-4bb7-ae18-2cc649fb864b" d="M144,147a10.27,10.27,0,0,1,2.91-8.21c5.8-6.16,11.88-12,17.91-18,.53-.52,1.5-.58,2.27-.86l1.92,2c0,1.49-.93,2.43-1.88,3.38q-9.88,9.87-19.75,19.76C146.43,146.08,145.49,147,144,147Z"/><path class="7ddd01e2-e144-4d0e-92ec-d1bbbb536a32" d="M150,161.06c.85,1.44,1.27,3.2,3,3.94-1,5.29-1.79,5.62-7,2.93C144.33,162,144.66,161.4,150,161.06Z"/><text class="331376c1-3658-4ae0-9935-a563833c5439" transform="translate(70.67 286.68)">MDa<tspan class="4f02dfc7-eac2-4533-8792-e22076c5cc6a" x="96.9" y="0">t</tspan><tspan x="114.35" y="0">a</tspan><tspan class="5cb85342-7280-4d84-a4a3-5d2e41b4edca" x="141.32" y="0">Rx</tspan></text></g></svg>