<svg xmlns="http://www.w3.org/2000/svg" xmlns:xlink="http://www.w3.org/1999/xlink" viewBox="0 0 995 282"><defs><style>.\39 b855f8e-d0cd-4e48-84dc-1a3ba04af2e0{fill:#e6e6e6;}.\36 af1c314-4c50-431e-a26a-cd4eaacfdd23{fill:url(#f922f9b7-aac8-409d-aaf4-cd083487292c);}.\30 ecfa3b8-f69b-4981-a8c4-f167618e86a8{fill:#bcc1c6;}.\30 807f264-c0f2-405a-85a5-f0df12fb7807{fill:#752475;}.\38 948463f-dc13-4089-bf8a-d6327c2f86b6{fill:#b32582;}.\39 6eb9ee9-ee44-4132-91bc-3ed0f5cc71ad{fill:#bf2480;}.\30 48251ad-af93-47ba-9052-e5632aab0006{fill:#de1f78;}.\38 3dbd99c-880b-42d9-ae23-e0fc3b060046{fill:#8e2988;}.fbacb9ea-b40f-4edd-85e3-d59cb8239edd{fill:#fbfbfb;}.\34 20c4d29-4f4d-40ba-9762-1a0fcfa94a91{fill:#333;}.\36 bcf75c6-6ba5-4e38-9a52-faa00f933eea{fill:#962888;}.\36 7242d1b-35ce-4936-9fc9-366f769645a5{fill:#cb227f;}.a297a66f-f5cc-4202-92fb-3b9b113e19e7{fill:#9f2786;}.\32 500f659-8b34-41d9-92ff-c1e29fd56157{fill:#a92685;}.fb27d391-3821-4daf-8a0a-f5ea06d24a86{fill:#e04795;}.cbb7021b-caf6-4484-9b62-67177a61525e{fill:#e6e7ef;}.\38 2ab9650-3e53-462a-80b2-68911eca1097{fill:#b94a9b;}.\34 cdc5044-ff58-4b22-b05a-820e57d7de84{font-size:103px;font-family:FranklinGothic-Heavy, Franklin Gothic Heavy;}.\33 45350fa-152e-455d-90bd-c9789492a0b1,.db86c331-55d5-442d-b2ed-e95cbe8798bf{fill:#4d4d4d;}.db86c331-55d5-442d-b2ed-e95cbe8798bf{letter-spacing:0.01em;}</style><linearGradient id="f922f9b7-aac8-409d-aaf4-cd083487292c" x1="290.86" y1="144.09" x2="268.04" y2="81.4" gradientUnits="userSpaceOnUse"><stop offset="0.23" stop-color="#fff" stop-opacity="0.1"/><stop offset="0.3" stop-color="#f6f6f6" stop-opacity="0.21"/><stop offset="0.44" stop-color="#e7e7e7" stop-opacity="0.38"/><stop offset="0.57" stop-color="#dbdbdb" stop-opacity="0.52"/><stop offset="0.71" stop-color="#d3d3d3" stop-opacity="0.62"/><stop offset="0.85" stop-color="#cecece" stop-opacity="0.68"/><stop offset="1" stop-color="#ccc" stop-opacity="0.7"/></linearGradient></defs><title>design-2</title><g id="e93894bf-7f9c-4235-86f1-133e651befa0" data-name="Layer 4"><rect class="9b855f8e-d0cd-4e48-84dc-1a3ba04af2e0" x="132" y="48" width="769" height="194" rx="22" ry="22"/><path class="6af1c314-4c50-431e-a26a-cd4eaacfdd23" d="M240.85,107.66c7.26-7.32,14.17-15,21.85-21.89a32.15,32.15,0,0,1,44.21,1.45c.42,1.6.72,3.24,1.27,4.79,4.52,12.49,2.55,24.11-6,34a212.88,212.88,0,0,1-22.32,22.12L274,143a18.73,18.73,0,0,0-5-5,18.73,18.73,0,0,0-5-5,12.23,12.23,0,0,0-4-4,26.53,26.53,0,0,0-6-6,12.33,12.33,0,0,0-4-4l-1.92-2-1.27-1.88c1.88,0,3-1.33,4.12-2.5,5.5-5.5,11-11,16.51-16.5,2-2,4-4.16,1.62-6.74s-4.79.19-6.28,1.63C256,97.5,249,103.84,243,111.09c-.31-.06-.61-.12-.92-.16Z"/><path class="0ecfa3b8-f69b-4981-a8c4-f167618e86a8" d="M279.85,148.09A212.88,212.88,0,0,0,302.17,126c8.56-9.85,10.53-21.47,6-34-.55-1.55-.85-3.19-1.27-4.79,11.83,10.73,13.62,30.12,3.21,42.9a196.85,196.85,0,0,1-23.93,23.95L280,149C280,148.68,279.91,148.39,279.85,148.09Z"/><path class="0807f264-c0f2-405a-85a5-f0df12fb7807" d="M280,149l6.18,5.09-7.28,8a10.61,10.61,0,0,0-3.88,4,49.91,49.91,0,0,0-9,9l-9,5-12.42,2.09c-9.34-1.13-17.94-3.76-23.83-11.85l2.25-.12a17.93,17.93,0,0,0,11,4c2.84,1.91,6,.55,9,.93,9.94-1.51,17.82-6.52,24.51-13.9C271.39,156.79,275.82,153,280,149Z"/><path class="8948463f-dc13-4089-bf8a-d6327c2f86b6" d="M223,170.09l-2.25.12a15.6,15.6,0,0,1-4.88-7.93l36.28-35.92c1-1,1.88-1.89,1.86-3.36a26.53,26.53,0,0,1,6,6,159.42,159.42,0,0,0-29,29.06c-5.32.34-5.65.92-3.95,6.87Z"/><path class="96eb9ee9-ee44-4132-91bc-3ed0f5cc71ad" d="M254,123c0,1.47-.9,2.41-1.86,3.36l-36.28,35.92c-2.09-2.38-2.15-5.38-2.55-8.28,3.3.42,4.29-3,6.74-4,4.16.09,5.09-2.5,4.95-6,1.49,0,2.43-.91,3.38-1.86q9.87-9.88,19.75-19.76c1-1,1.89-1.89,1.88-3.38A12.33,12.33,0,0,1,254,123Z"/><path class="048251ad-af93-47ba-9052-e5632aab0006" d="M240.85,107.66c.4,1.09.8,2.18,1.19,3.27-.06,2.08-1.68,3.15-2.94,4.42-4.55,4.59-9,9.33-13.74,13.66-4.52,4.1-6.24,9.15-6.49,15l-5.82,1q.49-3.48,1-7c4.34-8.79,10.79-15.89,17.88-22.49C235.53,113.6,237.49,109.84,240.85,107.66Z"/><path class="96eb9ee9-ee44-4132-91bc-3ed0f5cc71ad" d="M231.94,115.52c-7.09,6.6-13.54,13.7-17.88,22.49-4.22,1.38-6.49,4.94-9.1,8.12a15,15,0,0,1-6.13-3c9.29-8,17.49-17.16,26.2-25.76.62-.62.68-1.8,1-2.71Z"/><path class="83dbd99c-880b-42d9-ae23-e0fc3b060046" d="M280.06,170c1.77,3.12,0,5.54-1.91,7.54-6.51,6.66-13.14,13.19-19.82,19.67-2.5,2.43-5,2.63-6.71-1,2.88-1.48,4.66-4.19,7-6.29C265.84,183.34,271.69,175.3,280.06,170Z"/><path class="fbacb9ea-b40f-4edd-85e3-d59cb8239edd" d="M187.92,210c-2.88-.08-4.29-3.12-2.32-5.19,6.54-6.84,13.35-13.42,20.11-20a2.45,2.45,0,0,1,3.59.11,2.71,2.71,0,0,1,.48,4c-6.71,6.9-13.57,13.67-20.42,20.44A3.84,3.84,0,0,1,187.92,210Z"/><path class="420c4d29-4f4d-40ba-9762-1a0fcfa94a91" d="M187.92,210a3.56,3.56,0,0,1-2.21-.75,3,3,0,0,1-1.14-2.06,3.18,3.18,0,0,1,.71-2.28c.52-.61,1.08-1.13,1.63-1.69,2.19-2.22,4.38-4.43,6.6-6.61s4.5-4.32,6.71-6.52c1.11-1.09,2.21-2.2,3.3-3.31l1.64-1.66a7.51,7.51,0,0,1,.87-.81,2.34,2.34,0,0,1,1.14-.43,3.12,3.12,0,0,1,2.24.84,3.53,3.53,0,0,1,1.22,2.09,2.61,2.61,0,0,1-.79,2.29l-1.64,1.67-6.59,6.63c-2.19,2.2-4.42,4.38-6.65,6.55l-3.35,3.27-1.68,1.62a4.46,4.46,0,0,1-.9.77A7.31,7.31,0,0,1,187.92,210Zm0-.05a7.24,7.24,0,0,0,1.07-.43,4.81,4.81,0,0,0,.84-.79l1.62-1.68,3.26-3.35c2.17-2.23,4.34-4.47,6.55-6.67l6.62-6.59c1-1.15,2.65-2,2.38-3.58a3.12,3.12,0,0,0-1.06-1.89,2.73,2.73,0,0,0-2-.81,2,2,0,0,0-1,.36,7.49,7.49,0,0,0-.85.77l-1.66,1.63c-1.12,1.09-2.23,2.18-3.32,3.29-2.2,2.21-4.35,4.46-6.53,6.69s-4.41,4.4-6.63,6.58c-.54.55-1.14,1.08-1.64,1.64a2.85,2.85,0,0,0-.71,2,2.92,2.92,0,0,0,1,2A3.53,3.53,0,0,0,187.91,209.94Z"/><path class="6bcf75c6-6ba5-4e38-9a52-faa00f933eea" d="M280.06,170c-8.37,5.33-14.22,13.37-21.46,19.92-2.32,2.1-4.1,4.81-7,6.29-.69-1.34-1.37-2.69-2.05-4,6.32-3.18,10.6-8.73,15.52-13.52.79-.76,2.83-1.92.89-3.65a49.91,49.91,0,0,1,9-9c1.57,1.16,3,.53,4.51-.22C279.72,167.19,279.89,168.58,280.06,170Z"/><path class="fbacb9ea-b40f-4edd-85e3-d59cb8239edd" d="M186.18,195.05c-2.7-.75-3.69-2.85-2-4.8,4.18-4.73,8.81-9.06,13.32-13.49a2.57,2.57,0,0,1,3.63,0c1.23.95,1.71,2.47.87,3.53a119.67,119.67,0,0,1-14.34,14.49C187.39,195,186.76,195,186.18,195.05Z"/><path class="420c4d29-4f4d-40ba-9762-1a0fcfa94a91" d="M186.18,195.08a3.92,3.92,0,0,1-2.79-2,2.48,2.48,0,0,1,0-1.8,4.27,4.27,0,0,1,1-1.49c1.53-1.74,3.11-3.43,4.76-5.06s3.36-3.18,5-4.79c.84-.79,1.66-1.61,2.47-2.43a13.33,13.33,0,0,1,1.28-1.2,2.42,2.42,0,0,1,1.73-.43,3.63,3.63,0,0,1,1.64.72,3.74,3.74,0,0,1,1.15,1.4,2.35,2.35,0,0,1,.09,1.84,2.73,2.73,0,0,1-.5.79l-.54.67c-1.47,1.8-3,3.54-4.64,5.19s-3.31,3.25-5,4.79l-2.6,2.29-1.33,1.12a1.23,1.23,0,0,1-.83.32C186.76,195,186.48,195,186.18,195.08Zm0-.05c.54-.14,1.22,0,1.59-.46l1.27-1.18,2.53-2.38c1.67-1.59,3.3-3.23,4.91-4.88s3.16-3.36,4.65-5.12a8.72,8.72,0,0,0,1-1.33,2,2,0,0,0,0-1.53,3.51,3.51,0,0,0-2.47-2,2.17,2.17,0,0,0-1.56.35,12.33,12.33,0,0,0-1.27,1.15c-.84.8-1.68,1.59-2.49,2.41-1.66,1.62-3.25,3.3-4.85,5s-3.22,3.32-4.77,5a4.4,4.4,0,0,0-1,1.35,2.16,2.16,0,0,0-.05,1.58A3.83,3.83,0,0,0,186.18,195Z"/><path class="fbacb9ea-b40f-4edd-85e3-d59cb8239edd" d="M218.47,195.44a10.16,10.16,0,0,1-1.37,2.27c-3.94,4-7.95,8-11.95,12-1.48,1.48-3.15,2-4.75.39-1.39-1.43-1.06-3,.3-4.4q6.13-6.18,12.32-12.33a3.11,3.11,0,0,1,3.59-1C217.83,192.89,218.31,193.9,218.47,195.44Z"/><path class="420c4d29-4f4d-40ba-9762-1a0fcfa94a91" d="M218.5,195.44c-.28.53-.47,1.06-.76,1.57a6,6,0,0,1-1.1,1.35l-2.39,2.49c-1.61,1.65-3.22,3.3-4.87,4.91l-2.48,2.4-1.25,1.2a9,9,0,0,1-1.3,1.15,3.67,3.67,0,0,1-1.62.66,2.57,2.57,0,0,1-1.7-.42,3.18,3.18,0,0,1-1.63-3,3.49,3.49,0,0,1,.7-1.64,14.69,14.69,0,0,1,1.18-1.29l2.41-2.48c1.61-1.64,3.23-3.28,4.86-4.9s3.22-3.26,5-4.8a3.25,3.25,0,0,1,1.67-.65,3.08,3.08,0,0,1,1.74.41,2.54,2.54,0,0,1,1.17,1.31A5.44,5.44,0,0,1,218.5,195.44Zm-.05,0a5.74,5.74,0,0,0-.46-1.63,2.58,2.58,0,0,0-1.15-1.16,2.71,2.71,0,0,0-3.07.32,11.31,11.31,0,0,0-1.23,1.18l-1.2,1.24-2.42,2.45c-1.62,1.64-3.26,3.26-4.9,4.88l-2.47,2.41a13.64,13.64,0,0,0-1.19,1.22,3.17,3.17,0,0,0-.69,1.47,3,3,0,0,0,1.47,2.78,2.4,2.4,0,0,0,1.58.42,3.14,3.14,0,0,0,1.53-.64A25.3,25.3,0,0,0,206.7,208l2.39-2.49c1.6-1.65,3.24-3.27,4.88-4.89l2.48-2.4a6.83,6.83,0,0,0,1.15-1.26C217.91,196.45,218.15,195.91,218.45,195.43Z"/><path class="048251ad-af93-47ba-9052-e5632aab0006" d="M196.25,141c-1-2.41.13-4.06,1.79-5.69,6.16-6.07,12.32-12.13,18.32-18.36,2.61-2.7,5.43-3.61,9-2.51-2,.57-3.33,2.09-4.73,3.49-6.67,6.67-13.32,13.35-20,20C199.31,139.16,198.32,140.86,196.25,141Z"/><path class="67242d1b-35ce-4936-9fc9-366f769645a5" d="M196.25,141c2.07-.13,3.06-1.83,4.32-3.08,6.7-6.64,13.35-13.32,20-20,1.4-1.4,2.71-2.92,4.73-3.49a.6.6,0,0,1,.71.2c-.32.91-.38,2.09-1,2.71-8.71,8.6-16.91,17.73-26.2,25.76A2.62,2.62,0,0,1,196.25,141Z"/><path class="a297a66f-f5cc-4202-92fb-3b9b113e19e7" d="M266,175c1.94,1.73-.1,2.89-.89,3.65-4.92,4.79-9.2,10.34-15.52,13.52l-1.71-3.1A16.24,16.24,0,0,0,257,180Z"/><path class="2500f659-8b34-41d9-92ff-c1e29fd56157" d="M257,180a16.24,16.24,0,0,1-9.13,9.08l-3.29-7Z"/><path class="2500f659-8b34-41d9-92ff-c1e29fd56157" d="M205,146.13c2.61-3.18,4.88-6.74,9.1-8.12q-.51,3.48-1,7l-.21,5.3Z"/><path class="67242d1b-35ce-4936-9fc9-366f769645a5" d="M212.84,150.27l.21-5.3,5.82-1c.17,2-.15,4.18,1.18,6-2.45,1-3.44,4.45-6.74,4C213.15,152.75,213,151.51,212.84,150.27Z"/><path class="a297a66f-f5cc-4202-92fb-3b9b113e19e7" d="M279.54,165.79c-1.47.75-2.94,1.38-4.51.22a10.61,10.61,0,0,1,3.88-4Z"/><path class="a297a66f-f5cc-4202-92fb-3b9b113e19e7" d="M223,170.09l4-5.16c5.18,2.69,5.95,2.36,7-2.93,2.18-2,4.41-4,6.54-6.06Q252.3,144.5,264,133a18.73,18.73,0,0,1,5,5c-11.89,10.76-22.81,22.5-34.17,33.8-.51.51-.57,1.49-.85,2.25A17.93,17.93,0,0,1,223,170.09Z"/><path class="6bcf75c6-6ba5-4e38-9a52-faa00f933eea" d="M234,174.05c.28-.76.34-1.74.85-2.25,11.36-11.3,22.28-23,34.17-33.8a18.73,18.73,0,0,1,5,5c-10.54,9.41-20.1,19.81-30.12,29.74-.52.52-.6,1.49-.89,2.24C240,174.6,236.83,176,234,174.05Z"/><path class="83dbd99c-880b-42d9-ae23-e0fc3b060046" d="M243,175c.29-.75.37-1.72.89-2.24,10-9.93,19.58-20.33,30.12-29.74l5.84,5.09c.06.3.11.59.16.89-4.19,4-8.62,7.81-12.5,12.1C260.82,168.46,252.94,173.47,243,175Z"/><path class="fb27d391-3821-4daf-8a0a-f5ea06d24a86" d="M220.05,150c-1.33-1.81-1-3.95-1.18-6,.25-5.82,2-10.87,6.49-15,4.78-4.33,9.19-9.07,13.74-13.66,1.26-1.27,2.88-2.34,2.94-4.42.31,0,.61.1.92.16a11.82,11.82,0,0,0,3.86,4l1.27,1.88c-.77.28-1.74.34-2.27.86-6,5.93-12.11,11.82-17.91,18A10.27,10.27,0,0,0,225,144C225.14,147.47,224.21,150.06,220.05,150Z"/><path class="2500f659-8b34-41d9-92ff-c1e29fd56157" d="M264,133q-11.73,11.48-23.47,22.94C238.41,158,236.18,160,234,162c-1.75-.74-2.17-2.5-3-3.94A159.42,159.42,0,0,1,260,129,12.23,12.23,0,0,1,264,133Z"/><path class="cbb7021b-caf6-4484-9b62-67177a61525e" d="M246.82,115.06a11.82,11.82,0,0,1-3.86-4C249,103.84,256,97.5,262.79,91c1.49-1.44,3.75-4.34,6.28-1.63s.35,4.79-1.62,6.74c-5.52,5.48-11,11-16.51,16.5C249.77,113.73,248.7,115.06,246.82,115.06Z"/><path class="67242d1b-35ce-4936-9fc9-366f769645a5" d="M225,144a10.27,10.27,0,0,1,2.91-8.21c5.8-6.16,11.88-12,17.91-18,.53-.52,1.5-.58,2.27-.86l1.92,2c0,1.49-.93,2.43-1.88,3.38q-9.88,9.87-19.75,19.76C227.43,143.08,226.49,144,225,144Z"/><path class="82ab9650-3e53-462a-80b2-68911eca1097" d="M231,158.06c.85,1.44,1.27,3.2,3,3.94-1,5.29-1.79,5.62-7,2.93C225.33,159,225.66,158.4,231,158.06Z"/><text class="4cdc5044-ff58-4b22-b05a-820e57d7de84" transform="translate(353.67 180.7)"><tspan class="345350fa-152e-455d-90bd-c9789492a0b1">MDa</tspan><tspan class="db86c331-55d5-442d-b2ed-e95cbe8798bf" x="216.96" y="0">t</tspan><tspan class="345350fa-152e-455d-90bd-c9789492a0b1" x="256.04" y="0">a</tspan><tspan x="316.44" y="0">Rx</tspan></text></g></svg>