<svg xmlns="http://www.w3.org/2000/svg" viewBox="0 0 341 356"><defs><style>.\31 ee7efb4-19d5-4ba7-8435-b60f4ec360e5{fill:#00012a;}.\32 797b0af-1fc5-49ad-b0fc-f74d95559429{fill:#e1e5eb;}.b33b0d0c-2b23-4563-a86e-37ed70a8b755{fill:#bcc1c6;}.a9eb07d6-492c-4ed5-8637-adb45b0bdc77{fill:#752475;}.a9d2209c-c48c-41de-8457-5ee2b18e4e4b{fill:#b32582;}.\37 3f1bcd7-962f-4de6-9402-b63e76aafa02{fill:#bf2480;}.\31 34a2ccc-f30e-4cd2-b751-431e363e57af{fill:#de1f78;}.\33 96ea7f0-0fd4-4360-b65c-5703064ace77{fill:#8e2988;}.\34 aee2236-8591-44cd-810c-f2c718b042c2{fill:#fbfbfb;}.f787eec5-6370-495f-aa4b-d579301aa96c{fill:#962888;}.\31 58a5550-9dd3-45e3-a8c3-8d54fdb711b8{fill:#cb227f;}.c403b143-e11d-4b8b-b28b-363e217bd769{fill:#9f2786;}.d43d9789-0041-46b1-b128-4fb9f5d9d4a7{fill:#a92685;}.\36 5ad59f9-73da-4b17-9136-fc0b0b99e5cb{fill:#e04795;}.\38 3965962-14fd-423c-820e-f364cec46e50{fill:#e6e7ef;}.b2687646-2db4-4ee5-bcd3-aa92e5605465{fill:#b94a9b;}</style></defs><title>design-2</title><g id="b5234ce4-276a-4641-b205-60a67484329b" data-name="Layer 6"><rect class="1ee7efb4-19d5-4ba7-8435-b60f4ec360e5" x="48" y="50" width="256" height="256" rx="49.5" ry="49.5"/><path class="2797b0af-1fc5-49ad-b0fc-f74d95559429" d="M159.4,142.56c8.25-8.26,16.11-17,24.84-24.69a36.76,36.76,0,0,1,50.26,1.64c.48,1.8.82,3.65,1.45,5.4,5.14,14.08,2.9,27.19-6.83,38.3a242.25,242.25,0,0,1-25.38,25l-6.65-5.75a21.17,21.17,0,0,0-5.68-5.64,21.31,21.31,0,0,0-5.68-5.64,13.81,13.81,0,0,0-4.55-4.51,30.05,30.05,0,0,0-6.83-6.77,13.78,13.78,0,0,0-4.54-4.51L167.63,153l-1.44-2.12c2.13,0,3.35-1.51,4.68-2.82q9.39-9.32,18.77-18.62c2.24-2.19,4.6-4.68,1.85-7.6s-5.46.22-7.15,1.84c-7.69,7.39-15.65,14.54-22.54,22.72l-1.05-.18Z"/><path class="b33b0d0c-2b23-4563-a86e-37ed70a8b755" d="M203.74,188.17a242.25,242.25,0,0,0,25.38-25c9.73-11.11,12-24.22,6.83-38.3-.63-1.75-1-3.6-1.45-5.4,13.45,12.1,15.49,34,3.65,48.38-8.1,9.86-17.49,18.66-27.2,27l-7-5.74Z"/><path class="a9eb07d6-492c-4ed5-8637-adb45b0bdc77" d="M203.92,189.17l7,5.74-8.28,9a12,12,0,0,0-4.41,4.47A56.34,56.34,0,0,0,188,218.5l-10.22,5.63-14.13,2.35c-10.62-1.28-20.39-4.25-27.08-13.36l2.55-.14a20.53,20.53,0,0,0,12.51,4.47c3.23,2.15,6.84.61,10.24,1.05,11.3-1.71,20.26-7.36,27.87-15.68C194.13,198,199.16,193.7,203.92,189.17Z"/><path class="a9d2209c-c48c-41de-8457-5ee2b18e4e4b" d="M139.09,213l-2.55.14c-2.63-2.51-4.76-5.32-5.55-8.94l41.25-40.53c1.08-1.06,2.14-2.13,2.11-3.79a30.05,30.05,0,0,1,6.83,6.77,181,181,0,0,0-33,32.78c-6,.38-6.42,1-4.48,7.75Z"/><path class="73f1bcd7-962f-4de6-9402-b63e76aafa02" d="M174.35,159.86c0,1.66-1,2.73-2.11,3.79L131,204.18c-2.38-2.69-2.45-6.08-2.91-9.35,3.76.47,4.89-3.41,7.67-4.54,4.73.1,5.79-2.83,5.63-6.75,1.69,0,2.76-1,3.84-2.1l22.46-22.29c1.08-1.07,2.15-2.13,2.13-3.8A13.78,13.78,0,0,1,174.35,159.86Z"/><path class="134a2ccc-f30e-4cd2-b751-431e363e57af" d="M159.4,142.56l1.35,3.69c-.06,2.35-1.91,3.55-3.34,5-5.17,5.18-10.19,10.53-15.63,15.42-5.13,4.62-7.09,10.32-7.37,16.88l-6.62,1.12q.57-3.93,1.15-7.86c4.93-9.91,12.26-17.92,20.32-25.36C153.35,149.26,155.58,145,159.4,142.56Z"/><path class="73f1bcd7-962f-4de6-9402-b63e76aafa02" d="M149.26,151.43c-8.06,7.44-15.39,15.45-20.32,25.36-4.8,1.56-7.38,5.58-10.35,9.16-2.67-.44-4.83-1.9-7-3.42,10.56-9.05,19.88-19.35,29.79-29.06.7-.69.77-2,1.13-3.05Z"/><path class="396ea7f0-0fd4-4360-b65c-5703064ace77" d="M204,212.85c2,3.52.05,6.24-2.18,8.5-7.39,7.51-14.94,14.87-22.53,22.19-2.84,2.73-5.65,3-7.63-1.13,3.27-1.68,5.3-4.73,7.94-7.1C187.8,227.92,194.46,218.85,204,212.85Z"/><path class="4aee2236-8591-44cd-810c-f2c718b042c2" d="M99.22,258c-3.27-.1-4.87-3.53-2.63-5.86,7.42-7.72,15.17-15.14,22.85-22.61,1.24-1.2,2.77-1,4.09.13,1.54,1.34,1.75,3.28.54,4.52-7.63,7.79-15.43,15.42-23.21,23.06A4.75,4.75,0,0,1,99.22,258Z"/><path class="f787eec5-6370-495f-aa4b-d579301aa96c" d="M204,212.85c-9.52,6-16.18,15.07-24.4,22.46-2.64,2.37-4.67,5.42-7.94,7.1-.78-1.51-1.55-3-2.33-4.55,7.19-3.59,12.06-9.84,17.65-15.25.89-.86,3.21-2.16,1-4.11a56.34,56.34,0,0,1,10.29-10.12c1.78,1.31,3.46.6,5.13-.25C203.59,209.71,203.78,211.28,204,212.85Z"/><path class="4aee2236-8591-44cd-810c-f2c718b042c2" d="M97.25,241.14c-3.08-.86-4.2-3.22-2.23-5.42,4.76-5.33,10-10.22,15.15-15.22a2.94,2.94,0,0,1,4.13,0c1.4,1.07,1.94,2.79,1,4A133.82,133.82,0,0,1,99,240.78C98.62,241.1,97.9,241,97.25,241.14Z"/><path class="4aee2236-8591-44cd-810c-f2c718b042c2" d="M134,241.57a11.73,11.73,0,0,1-1.56,2.56c-4.48,4.56-9.05,9-13.59,13.54-1.68,1.67-3.58,2.3-5.41.44-1.57-1.61-1.19-3.42.35-5q7-7,14-13.92a3.59,3.59,0,0,1,4.09-1.09C133.22,238.7,133.77,239.84,134,241.57Z"/><path class="134a2ccc-f30e-4cd2-b751-431e363e57af" d="M108.69,180.15c-1.16-2.71.15-4.57,2-6.41,7-6.85,14-13.69,20.83-20.71,3-3.05,6.17-4.07,10.18-2.83-2.3.64-3.79,2.36-5.38,3.94-7.58,7.52-15.14,15.06-22.76,22.54C112.17,178.09,111.05,180,108.69,180.15Z"/><path class="158a5550-9dd3-45e3-a8c3-8d54fdb711b8" d="M108.69,180.15c2.36-.14,3.48-2.06,4.91-3.47,7.62-7.48,15.18-15,22.76-22.54,1.59-1.58,3.08-3.3,5.38-3.94a.69.69,0,0,1,.81.22c-.36,1-.43,2.36-1.13,3.05-9.91,9.71-19.23,20-29.79,29.06A3,3,0,0,1,108.69,180.15Z"/><path class="c403b143-e11d-4b8b-b28b-363e217bd769" d="M188,218.5c2.2,1.95-.12,3.25-1,4.11-5.59,5.41-10.46,11.66-17.65,15.25l-1.94-3.49a18.43,18.43,0,0,0,10.38-10.24Z"/><path class="d43d9789-0041-46b1-b128-4fb9f5d9d4a7" d="M177.75,224.13a18.43,18.43,0,0,1-10.38,10.24l-3.75-7.89Z"/><path class="d43d9789-0041-46b1-b128-4fb9f5d9d4a7" d="M118.59,186c3-3.58,5.55-7.6,10.35-9.16q-.58,3.93-1.15,7.86-.12,3-.23,6Z"/><path class="158a5550-9dd3-45e3-a8c3-8d54fdb711b8" d="M127.56,190.62q.1-3,.23-6l6.62-1.12c.19,2.3-.17,4.71,1.34,6.76-2.78,1.13-3.91,5-7.67,4.54C127.91,193.42,127.73,192,127.56,190.62Z"/><path class="c403b143-e11d-4b8b-b28b-363e217bd769" d="M203.39,208.13c-1.67.85-3.35,1.56-5.13.25a12,12,0,0,1,4.41-4.47Z"/><path class="c403b143-e11d-4b8b-b28b-363e217bd769" d="M139.09,213l4.6-5.82c5.88,3,6.76,2.66,7.92-3.3,2.48-2.28,5-4.5,7.43-6.84q13.38-12.9,26.69-25.88a21.31,21.31,0,0,1,5.68,5.64c-13.51,12.14-25.93,25.39-38.84,38.13-.59.58-.66,1.68-1,2.54A20.53,20.53,0,0,1,139.09,213Z"/><path class="f787eec5-6370-495f-aa4b-d579301aa96c" d="M151.6,217.45c.31-.86.38-2,1-2.54,12.91-12.74,25.33-26,38.84-38.13a21.17,21.17,0,0,1,5.68,5.64c-12,10.62-22.84,22.35-34.24,33.55-.59.58-.68,1.67-1,2.53C158.44,218.06,154.83,219.6,151.6,217.45Z"/><path class="396ea7f0-0fd4-4360-b65c-5703064ace77" d="M161.84,218.5c.33-.86.42-1.95,1-2.53,11.4-11.2,22.27-22.93,34.24-33.55l6.65,5.75.18,1c-4.76,4.53-9.79,8.81-14.21,13.65C182.1,211.14,173.14,216.79,161.84,218.5Z"/><path class="65ad59f9-73da-4b17-9136-fc0b0b99e5cb" d="M135.75,190.29c-1.51-2-1.15-4.46-1.34-6.76.28-6.56,2.24-12.26,7.37-16.88,5.44-4.89,10.46-10.24,15.63-15.42,1.43-1.43,3.28-2.63,3.34-5l1.05.18a13.16,13.16,0,0,0,4.39,4.48l1.44,2.12c-.87.31-2,.38-2.58,1-6.86,6.69-13.77,13.33-20.36,20.28a11.5,11.5,0,0,0-3.31,9.26C141.54,187.46,140.48,190.39,135.75,190.29Z"/><path class="d43d9789-0041-46b1-b128-4fb9f5d9d4a7" d="M185.73,171.14Q172.4,184.09,159,197c-2.42,2.34-4.95,4.56-7.43,6.84-2-.84-2.47-2.83-3.44-4.45a181,181,0,0,1,33-32.78A13.81,13.81,0,0,1,185.73,171.14Z"/><path class="83965962-14fd-423c-820e-f364cec46e50" d="M166.19,150.91a13.16,13.16,0,0,1-4.39-4.48c6.89-8.18,14.85-15.33,22.54-22.72,1.69-1.62,4.27-4.89,7.15-1.84s.39,5.41-1.85,7.6q-9.4,9.28-18.77,18.62C169.54,149.4,168.32,150.91,166.19,150.91Z"/><path class="158a5550-9dd3-45e3-a8c3-8d54fdb711b8" d="M141.38,183.54a11.5,11.5,0,0,1,3.31-9.26c6.59-6.95,13.5-13.59,20.36-20.28.6-.59,1.71-.66,2.58-1l2.18,2.32c0,1.67-1.05,2.73-2.13,3.8l-22.46,22.29C144.14,182.51,143.07,183.58,141.38,183.54Z"/><path class="b2687646-2db4-4ee5-bcd3-aa92e5605465" d="M148.17,199.41c1,1.62,1.45,3.61,3.44,4.45-1.16,6-2,6.33-7.92,3.3C141.75,200.44,142.13,199.79,148.17,199.41Z"/></g></svg>