<svg xmlns="http://www.w3.org/2000/svg" viewBox="0 0 999 300"><defs><style>.\34 db5ff81-d7ed-4fad-a0d6-4f961b7d485c{fill:#00012a;}.\39 1995658-f785-4bce-ac8f-796b79c688ad,.de001382-6030-4ff9-9655-ad95ff35fc60{fill:#e1e5eb;}.\30 20a108e-cc6a-45de-b66c-5bb5713779cd{fill:#bcc1c6;}.f526863d-7fb6-48fd-b02b-3d74a1b2c4c6{fill:#752475;}.\34 29fb316-51ce-4df5-af65-7643fdd40af3{fill:#b32582;}.cf84f717-e009-449a-bdd1-009b82ffa179{fill:#bf2480;}.db8dc0f6-8b5f-4488-92ab-d8de0815daa9{fill:#de1f78;}.c6b3b695-5a10-48b0-b452-87e616245387{fill:#8e2988;}.\31 3274684-c30b-4f0f-a859-c756d310d330{fill:#fbfbfb;}.ae01c06c-66d5-4c2b-8e3b-4aa6968d517f{fill:#962888;}.f8fb6cdd-8237-4402-b5a4-ddeed89500a9{fill:#cb227f;}.\30 c3e9139-fc18-4878-8065-2ee266f1b017{fill:#9f2786;}.\31 382d485-f1c2-46fa-bd72-99e821d069c2{fill:#a92685;}.f2485a76-1cec-4312-870d-f06d3a4e677e{fill:#e04795;}.\32 7d0c708-fceb-45af-860a-96bbda9d4305{fill:#e6e7ef;}.dd72def8-e0dd-44c9-ae64-fbe163dee954{fill:#b94a9b;}.\39 1995658-f785-4bce-ac8f-796b79c688ad{font-size:103px;font-family:FranklinGothic-Heavy, Franklin Gothic Heavy;}.\34 a76b76f-dae0-4708-b8c9-5bcb0ca2cc0a{letter-spacing:0.01em;}.\32 c673aad-6765-41c2-9fe1-effc9bbe514b{fill:#fff;}</style></defs><title>design-2</title><g id="072620e4-0e47-4ce2-9cf6-68baf40b6299" data-name="Layer 2"><rect class="4db5ff81-d7ed-4fad-a0d6-4f961b7d485c" x="132" y="50" width="769" height="194"/></g><g id="76c29a1d-920f-440b-9691-76b75e1f0794" data-name="Layer 1"><path class="de001382-6030-4ff9-9655-ad95ff35fc60" d="M240.85,110.66c7.26-7.32,14.17-15,21.85-21.89a32.15,32.15,0,0,1,44.21,1.45c.42,1.6.72,3.24,1.27,4.79,4.52,12.49,2.55,24.11-6,34a212.88,212.88,0,0,1-22.32,22.12L274,146a18.73,18.73,0,0,0-5-5,18.73,18.73,0,0,0-5-5,12.23,12.23,0,0,0-4-4,26.53,26.53,0,0,0-6-6,12.33,12.33,0,0,0-4-4l-1.92-2-1.27-1.88c1.88,0,3-1.33,4.12-2.5,5.5-5.5,11-11,16.51-16.5,2-2,4-4.16,1.62-6.74s-4.79.19-6.28,1.63C256,100.5,249,106.84,243,114.09c-.31-.06-.61-.12-.92-.16Z"/><path class="020a108e-cc6a-45de-b66c-5bb5713779cd" d="M279.85,151.09A212.88,212.88,0,0,0,302.17,129c8.56-9.85,10.53-21.47,6-34-.55-1.55-.85-3.19-1.27-4.79,11.83,10.73,13.62,30.12,3.21,42.9a196.85,196.85,0,0,1-23.93,23.95L280,152C280,151.68,279.91,151.39,279.85,151.09Z"/><path class="f526863d-7fb6-48fd-b02b-3d74a1b2c4c6" d="M280,152l6.18,5.09-7.28,8a10.61,10.61,0,0,0-3.88,4,49.91,49.91,0,0,0-9,9l-9,5-12.42,2.09c-9.34-1.13-17.94-3.76-23.83-11.85l2.25-.12a17.93,17.93,0,0,0,11,4c2.84,1.91,6,.55,9,.93,9.94-1.51,17.82-6.52,24.51-13.9C271.39,159.79,275.82,156,280,152Z"/><path class="429fb316-51ce-4df5-af65-7643fdd40af3" d="M223,173.09l-2.25.12a15.6,15.6,0,0,1-4.88-7.93l36.28-35.92c1-1,1.88-1.89,1.86-3.36a26.53,26.53,0,0,1,6,6,159.42,159.42,0,0,0-29,29.06c-5.32.34-5.65.92-3.95,6.87Z"/><path class="cf84f717-e009-449a-bdd1-009b82ffa179" d="M254,126c0,1.47-.9,2.41-1.86,3.36l-36.28,35.92c-2.09-2.38-2.15-5.38-2.55-8.28,3.3.42,4.29-3,6.74-4,4.16.09,5.09-2.5,4.95-6,1.49,0,2.43-.91,3.38-1.86q9.87-9.88,19.75-19.76c1-1,1.89-1.89,1.88-3.38A12.33,12.33,0,0,1,254,126Z"/><path class="db8dc0f6-8b5f-4488-92ab-d8de0815daa9" d="M240.85,110.66c.4,1.09.8,2.18,1.19,3.27-.06,2.08-1.68,3.15-2.94,4.42-4.55,4.59-9,9.33-13.74,13.66-4.52,4.1-6.24,9.15-6.49,15l-5.82,1q.49-3.48,1-7c4.34-8.79,10.79-15.89,17.88-22.49C235.53,116.6,237.49,112.84,240.85,110.66Z"/><path class="cf84f717-e009-449a-bdd1-009b82ffa179" d="M231.94,118.52c-7.09,6.6-13.54,13.7-17.88,22.49-4.22,1.38-6.49,4.94-9.1,8.12a15,15,0,0,1-6.13-3c9.29-8,17.49-17.16,26.2-25.76.62-.62.68-1.8,1-2.71Z"/><path class="c6b3b695-5a10-48b0-b452-87e616245387" d="M280.06,173c1.77,3.12,0,5.54-1.91,7.54-6.51,6.66-13.14,13.19-19.82,19.67-2.5,2.43-5,2.63-6.71-1,2.88-1.48,4.66-4.19,7-6.29C265.84,186.34,271.69,178.3,280.06,173Z"/><path class="13274684-c30b-4f0f-a859-c756d310d330" d="M187.92,213c-2.88-.08-4.29-3.12-2.32-5.19,6.54-6.84,13.35-13.42,20.11-20a2.45,2.45,0,0,1,3.59.11,2.71,2.71,0,0,1,.48,4c-6.71,6.9-13.57,13.67-20.42,20.44A3.84,3.84,0,0,1,187.92,213Z"/><path class="ae01c06c-66d5-4c2b-8e3b-4aa6968d517f" d="M280.06,173c-8.37,5.33-14.22,13.37-21.46,19.92-2.32,2.1-4.1,4.81-7,6.29-.69-1.34-1.37-2.69-2.05-4,6.32-3.18,10.6-8.73,15.52-13.52.79-.76,2.83-1.92.89-3.65a49.91,49.91,0,0,1,9-9c1.57,1.16,3,.53,4.51-.22C279.72,170.19,279.89,171.58,280.06,173Z"/><path class="13274684-c30b-4f0f-a859-c756d310d330" d="M186.18,198.05c-2.7-.75-3.69-2.85-2-4.8,4.18-4.73,8.81-9.06,13.32-13.49a2.57,2.57,0,0,1,3.63,0c1.23.95,1.71,2.47.87,3.53a119.67,119.67,0,0,1-14.34,14.49C187.39,198,186.76,198,186.18,198.05Z"/><path class="13274684-c30b-4f0f-a859-c756d310d330" d="M218.47,198.44a10.16,10.16,0,0,1-1.37,2.27c-3.94,4-7.95,8-11.95,12-1.48,1.48-3.15,2-4.75.39-1.39-1.43-1.06-3,.3-4.4q6.13-6.18,12.32-12.33a3.11,3.11,0,0,1,3.59-1C217.83,195.89,218.31,196.9,218.47,198.44Z"/><path class="db8dc0f6-8b5f-4488-92ab-d8de0815daa9" d="M196.25,144c-1-2.41.13-4.06,1.79-5.69,6.16-6.07,12.32-12.13,18.32-18.36,2.61-2.7,5.43-3.61,9-2.51-2,.57-3.33,2.09-4.73,3.49-6.67,6.67-13.32,13.35-20,20C199.31,142.16,198.32,143.86,196.25,144Z"/><path class="f8fb6cdd-8237-4402-b5a4-ddeed89500a9" d="M196.25,144c2.07-.13,3.06-1.83,4.32-3.08,6.7-6.64,13.35-13.32,20-20,1.4-1.4,2.71-2.92,4.73-3.49a.6.6,0,0,1,.71.2c-.32.91-.38,2.09-1,2.71-8.71,8.6-16.91,17.73-26.2,25.76A2.62,2.62,0,0,1,196.25,144Z"/><path class="0c3e9139-fc18-4878-8065-2ee266f1b017" d="M266,178c1.94,1.73-.1,2.89-.89,3.65-4.92,4.79-9.2,10.34-15.52,13.52l-1.71-3.1A16.24,16.24,0,0,0,257,183Z"/><path class="1382d485-f1c2-46fa-bd72-99e821d069c2" d="M257,183a16.24,16.24,0,0,1-9.13,9.08l-3.29-7Z"/><path class="1382d485-f1c2-46fa-bd72-99e821d069c2" d="M205,149.13c2.61-3.18,4.88-6.74,9.1-8.12q-.51,3.48-1,7l-.21,5.3Z"/><path class="f8fb6cdd-8237-4402-b5a4-ddeed89500a9" d="M212.84,153.27l.21-5.3,5.82-1c.17,2-.15,4.18,1.18,6-2.45,1-3.44,4.45-6.74,4C213.15,155.75,213,154.51,212.84,153.27Z"/><path class="0c3e9139-fc18-4878-8065-2ee266f1b017" d="M279.54,168.79c-1.47.75-2.94,1.38-4.51.22a10.61,10.61,0,0,1,3.88-4Z"/><path class="0c3e9139-fc18-4878-8065-2ee266f1b017" d="M223,173.09l4-5.16c5.18,2.69,5.95,2.36,7-2.93,2.18-2,4.41-4,6.54-6.06Q252.3,147.5,264,136a18.73,18.73,0,0,1,5,5c-11.89,10.76-22.81,22.5-34.17,33.8-.51.51-.57,1.49-.85,2.25A17.93,17.93,0,0,1,223,173.09Z"/><path class="ae01c06c-66d5-4c2b-8e3b-4aa6968d517f" d="M234,177.05c.28-.76.34-1.74.85-2.25,11.36-11.3,22.28-23,34.17-33.8a18.73,18.73,0,0,1,5,5c-10.54,9.41-20.1,19.81-30.12,29.74-.52.52-.6,1.49-.89,2.24C240,177.6,236.83,179,234,177.05Z"/><path class="c6b3b695-5a10-48b0-b452-87e616245387" d="M243,178c.29-.75.37-1.72.89-2.24,10-9.93,19.58-20.33,30.12-29.74l5.84,5.09c.06.3.11.59.16.89-4.19,4-8.62,7.81-12.5,12.1C260.82,171.46,252.94,176.47,243,178Z"/><path class="f2485a76-1cec-4312-870d-f06d3a4e677e" d="M220.05,153c-1.33-1.81-1-3.95-1.18-6,.25-5.82,2-10.87,6.49-15,4.78-4.33,9.19-9.07,13.74-13.66,1.26-1.27,2.88-2.34,2.94-4.42.31,0,.61.1.92.16a11.82,11.82,0,0,0,3.86,4l1.27,1.88c-.77.28-1.74.34-2.27.86-6,5.93-12.11,11.82-17.91,18A10.27,10.27,0,0,0,225,147C225.14,150.47,224.21,153.06,220.05,153Z"/><path class="1382d485-f1c2-46fa-bd72-99e821d069c2" d="M264,136q-11.73,11.48-23.47,22.94C238.41,161,236.18,163,234,165c-1.75-.74-2.17-2.5-3-3.94A159.42,159.42,0,0,1,260,132,12.23,12.23,0,0,1,264,136Z"/><path class="27d0c708-fceb-45af-860a-96bbda9d4305" d="M246.82,118.06a11.82,11.82,0,0,1-3.86-4C249,106.84,256,100.5,262.79,94c1.49-1.44,3.75-4.34,6.28-1.63s.35,4.79-1.62,6.74c-5.52,5.48-11,11-16.51,16.5C249.77,116.73,248.7,118.06,246.82,118.06Z"/><path class="f8fb6cdd-8237-4402-b5a4-ddeed89500a9" d="M225,147a10.27,10.27,0,0,1,2.91-8.21c5.8-6.16,11.88-12,17.91-18,.53-.52,1.5-.58,2.27-.86l1.92,2c0,1.49-.93,2.43-1.88,3.38q-9.88,9.87-19.75,19.76C227.43,146.08,226.49,147,225,147Z"/><path class="dd72def8-e0dd-44c9-ae64-fbe163dee954" d="M231,161.06c.85,1.44,1.27,3.2,3,3.94-1,5.29-1.79,5.62-7,2.93C225.33,162,225.66,161.4,231,161.06Z"/></g><g id="c7541c9c-a0a4-4b2c-9a98-433121249cc2" data-name="Layer 3"><text class="91995658-f785-4bce-ac8f-796b79c688ad" transform="translate(353.67 183.7)">MDa<tspan class="4a76b76f-dae0-4708-b8c9-5bcb0ca2cc0a" x="216.96" y="0">t</tspan><tspan x="256.04" y="0">a</tspan><tspan class="2c673aad-6765-41c2-9fe1-effc9bbe514b" x="316.44" y="0">Rx</tspan></text></g></svg>